<?xml version="1.0" encoding="UTF-8"?>
<svg width="465px" height="224px" viewBox="0 0 465 224" version="1.1" xmlns="http://www.w3.org/2000/svg" xmlns:xlink="http://www.w3.org/1999/xlink">
    <!-- Generator: Sketch 51.3 (57544) - http://www.bohemiancoding.com/sketch -->
    <title>Commercial</title>
    <desc>Created with Sketch.</desc>
    <defs></defs>
    <g id="icons" stroke="none" stroke-width="1" fill="none" fill-rule="evenodd">
        <g id="final" transform="translate(-980.000000, -1054.000000)" fill-rule="nonzero">
            <g id="Commercial" transform="translate(980.000000, 1054.000000)">
                <g id="Group" transform="translate(56.000000, 152.000000)" fill="#666666">
                    <circle id="Oval" cx="32" cy="32" r="32"></circle>
                    <path d="M344,32 C344,49.68 329.68,64 312,64 C294.32,64 280,49.68 280,32 C280,22.4 284.24,13.84 290.88,8 C296.56,3.04 303.92,0 312,0 C329.68,0 344,14.32 344,32 Z" id="Shape"></path>
                </g>
                <path d="M392,8 L328,8 L264,8 L232,8 L200,8 L136,8 L72,8 L24,8 C15.2,8 8,15.2 8,24 L8,80 L8,184 L56,184 C56,181.792 56.224,179.632 56.648,177.552 C57.504,173.384 59.16,169.512 61.464,166.112 C67.216,157.592 76.952,152 88,152 C99.048,152 108.784,157.592 114.536,166.104 C116.832,169.512 118.496,173.384 119.352,177.544 C119.776,179.632 120,181.792 120,184 L200,184 L232,184 L264,184 L336,184 C336,179.2 337.064,174.664 338.952,170.592 C340.84,166.52 343.56,162.92 346.88,160 C352.56,155.04 359.92,152 368,152 C379.048,152 388.784,157.592 394.536,166.104 C396.832,169.512 398.496,173.384 399.352,177.544 C399.776,179.632 400,181.792 400,184 L456,184 L456,152 L456,112 L456,80 L456,72 L424,8 L392,8 Z" id="Shape" fill="#FFFFFF"></path>
                <path d="M392,8 L328,8 L264,8 L232,8 L200,8 L136,8 L72,8 L24,8 C15.2,8 8,15.2 8,24 L8,80 L72,80 L136,80 L200,80 L200,184 L232,184 L264,184 L264,80 L328,80 L392,80 L456,80 L456,72 L424,8 L392,8 Z" id="Shape" fill="#CCCCCC"></path>
                <rect id="Rectangle-path" fill="#000000" x="80.08" y="176" width="16" height="16" rx="8"></rect>
                <rect id="Rectangle-path" fill="#000000" x="360.08" y="176" width="16" height="16" rx="8"></rect>
                <path d="M111.88,216 C119.632,210.224 125.296,201.808 127.304,192 L192.112,192 L208.112,192 L224.112,192 L240.112,192 L256.112,192 L272.112,192 L328.92,192 C330.92,201.808 336.592,210.224 344.344,216 C351.090022,220.965749 358.991884,223.448623 368.049584,223.448623 C377.107284,223.448623 385.050756,220.965749 391.88,216 C399.632,210.224 405.296,201.808 407.304,192 L464.112,192 L464.112,160 L464.112,144 L464.112,120 L464.112,104 L464.112,88 L464.112,72 L464.112,70.112 L429.056,0 L400.112,0 L384.112,0 L336.112,0 L320.112,0 L272.112,0 L256.112,0 L240.112,0 L224.112,0 L208.112,0 L192.112,0 L144.112,0 L128.112,0 L80.112,0 L64.112,0 L24.112,0 C10.88,0 0.112,10.768 0.112,24 L0.112,72 L0.112,88 L0.112,192 L48.92,192 C50.92,201.808 56.592,210.224 64.344,216 C72.0796919,220.965749 79.9331724,223.448623 87.9044413,223.448623 C95.8757103,223.448623 103.867563,220.965749 111.88,216 Z M368.112,208 C354.88,208 344.112,197.232 344.112,184 C344.112,177.136 347.088,170.568 352.256,166.024 C356.704,162.144 362.336,160 368.112,160 C381.344,160 392.112,170.768 392.112,184 C392.112,197.232 381.344,208 368.112,208 Z M400.112,16 L419.168,16 L447.168,72 L440.112,72 L424.112,72 L400.112,72 L400.112,16 Z M336.112,16 L384.112,16 L384.112,72 L336.112,72 L336.112,16 Z M272.112,16 L320.112,16 L320.112,72 L272.112,72 L272.112,16 Z M400.112,88 L448.112,88 L448.112,104.679644 L431.772178,104.679644 C427.541578,104.679644 424.112,108.109223 424.112,112.339822 L424.112,112.339822 C424.112,116.570422 427.541578,120 431.772178,120 L448.112,120 L448.112,176 L407.949539,176 C407.262975,172.577176 406.291738,169.483073 405.03583,166.717692 C403.779921,163.95231 402.138645,161.293928 400.112,158.742546 L400.112,88 Z M272.112,87.984 L320.112,87.984 L336.112,87.984 L384.112,87.984 L384.112,147.454512 C383.829333,147.306171 383.394667,147.114667 382.808,146.88 C381.272,146.272 379.672,145.816 378.048,145.4 C377.256,145.192 376.496,144.912 375.68,144.76 C373.216,144.28 370.68,143.992 368.08,143.992 C358.432,143.992 349.064,147.528 341.672,153.984 C340.2,155.28 338.88,156.704 337.632,158.176 C337.336,158.528 337.04,158.88 336.76,159.24 C335.576,160.736 334.464,162.288 333.512,163.928 C333.44,164.048 333.384,164.184 333.312,164.304 C332.432,165.856 331.68,167.472 331.016,169.12 C330.848,169.544 330.68,169.96 330.52,170.384 C329.88,172.152 329.328,173.96 328.944,175.808 C328.933333,175.850667 309.989333,175.909333 272.112,175.984 L272.112,87.984 Z M240.112,16 L256.112,16 L256.112,72 L256.112,88 L256.112,176 L240.112,176 L240.112,16 Z M208.112,88 L208.112,72 L208.112,16 L224.112,16 L224.112,176 L208.112,176 L208.112,88 Z M144.112,16 L192.112,16 L192.112,72 L144.112,72 L144.112,16 Z M80.112,16 L128.112,16 L128.112,72 L80.112,72 L80.112,16 Z M16.112,24 C16.112,19.584 19.704,16 24.112,16 L64.112,16 L64.112,72 L16.112,72 L16.112,24 Z M58.968,156.72 C57.952,157.808 57.024,158.96 56.128,160.16 C55.568,160.912 54.984,161.64 54.472,162.432 C53.592,163.792 52.864,165.232 52.152,166.704 C51.792,167.44 51.376,168.136 51.064,168.896 C50.184,171.032 49.488,173.256 48.992,175.56 C48.96,175.704 48.896,175.832 48.864,175.976 C48.864,175.981333 37.9466667,175.989333 16.112,176 L16.112,120 L30.112,120 C32.8734237,120 35.112,117.761424 35.112,115 L35.112,109 C35.112,106.238576 32.8734237,104 30.112,104 L16.112,104 L16.112,88 L64.112,88 L80.112,88 L128.112,88 L144.112,88 L192.112,88 L192.112,176 L127.304,176 C127.264,175.832 127.2,175.704 127.168,175.56 C126.672,173.256 125.968,171.032 125.096,168.896 C124.784,168.136 124.368,167.44 124.008,166.704 C123.296,165.24 122.568,163.792 121.688,162.432 C121.176,161.64 120.6,160.912 120.032,160.16 C119.136,158.968 118.216,157.808 117.192,156.72 C116.52,156.008 115.824,155.344 115.104,154.68 C114.032,153.688 112.912,152.768 111.728,151.896 C110.944,151.312 110.152,150.752 109.32,150.224 C108.048,149.424 106.728,148.736 105.368,148.08 C104.52,147.672 103.688,147.232 102.808,146.88 C101.272,146.272 99.672,145.816 98.048,145.4 C97.256,145.192 96.496,144.912 95.68,144.76 C93.216,144.28 90.68,143.992 88.08,143.992 C85.48,143.992 82.944,144.28 80.48,144.76 C79.664,144.92 78.912,145.192 78.112,145.4 C76.488,145.816 74.888,146.272 73.352,146.88 C72.472,147.232 71.64,147.664 70.792,148.08 C69.432,148.736 68.112,149.424 66.84,150.224 C66.008,150.752 65.224,151.312 64.432,151.896 C63.256,152.768 62.136,153.688 61.056,154.68 C60.336,155.344 59.64,156.008 58.968,156.72 Z M88.112,208 C74.88,208 64.112,197.232 64.112,184 C64.112,170.768 74.88,160 88.112,160 C101.344,160 112.112,170.768 112.112,184 C112.112,197.232 101.344,208 88.112,208 Z" id="Shape" fill="#000000"></path>
            </g>
        </g>
    </g>
</svg>