<?xml version="1.0" encoding="utf-8"?>
<svg width="65" height="39" viewBox="0 0 65 39" fill="none" xmlns="http://www.w3.org/2000/svg">
  <path d="M 6.408 20.977 L 2.862 20.977 L 2.862 19.795 L 6.408 19.795 C 8.418 19.795 9.955 18.258 9.955 16.248 L 11.137 16.248 C 11.137 18.849 9.009 20.977 6.408 20.977 Z" style="fill: rgb(71, 71, 71);"/>
  <path d="M 58.54 16.248 L 25.086 16.248 L 26.741 14.475 C 31.115 9.746 37.379 7.028 43.881 7.028 C 45.418 7.028 46.955 7.146 48.491 7.501 C 52.156 8.21 55.348 10.456 57.12 13.766 L 58.54 16.248 Z M 27.804 15.066 L 56.412 15.066 L 56.057 14.358 C 54.402 11.402 51.565 9.274 48.255 8.683 C 46.837 8.447 45.418 8.21 43.881 8.21 C 37.853 8.21 31.942 10.692 27.804 15.066 Z" style="fill: rgb(71, 71, 71);"/>
  <path d="M 41.753 22.75 L 32.296 22.75 C 30.168 22.75 28.277 21.332 27.568 19.321 L 25.913 15.893 L 26.977 15.421 L 28.632 18.849 C 29.105 20.503 30.642 21.568 32.296 21.568 L 41.753 21.568 C 43.408 21.568 44.827 20.622 45.535 19.204 L 50.619 9.038 L 51.683 9.51 L 46.6 19.676 C 45.654 21.568 43.881 22.75 41.753 22.75 Z" style="fill: rgb(71, 71, 71);"/>
  <path d="M 48.491 24.286 L 21.303 24.286 L 21.303 26.651 L 48.491 26.651 L 48.491 24.286 Z" style="fill: rgb(71, 71, 71);"/>
  <path d="M 61.376 26.651 L 59.131 26.651 L 59.131 24.286 L 61.376 24.286 C 61.849 24.286 62.204 24.05 62.44 23.695 C 62.676 23.341 62.558 22.868 62.322 22.514 L 61.494 21.332 C 59.603 18.849 56.648 17.312 53.575 17.312 L 9.6 17.312 C 5.7 17.312 2.508 20.503 2.508 24.405 L 10.665 24.405 L 10.665 26.769 L 2.508 26.769 C 1.207 26.769 0.144 25.706 0.144 24.405 C 0.144 19.204 4.399 14.949 9.6 14.949 L 53.575 14.949 C 57.475 14.949 61.14 16.839 63.386 19.912 L 64.213 21.095 C 65.04 22.159 65.159 23.578 64.449 24.76 C 63.858 25.942 62.676 26.651 61.376 26.651 Z" style="fill: rgb(71, 71, 71);"/>
  <path d="M 15.983 31.971 C 12.437 31.971 9.483 29.015 9.483 25.469 C 9.483 21.923 12.437 18.968 15.983 18.968 C 19.53 18.968 22.485 21.923 22.485 25.469 C 22.485 29.015 19.53 31.971 15.983 31.971 Z M 15.983 21.332 C 13.738 21.332 11.846 23.223 11.846 25.469 C 11.846 27.715 13.738 29.606 15.983 29.606 C 18.229 29.606 20.121 27.715 20.121 25.469 C 20.121 23.223 18.229 21.332 15.983 21.332 Z" style="fill: rgb(71, 71, 71);"/>
  <path d="M 53.811 31.971 C 50.264 31.971 47.309 29.015 47.309 25.469 C 47.309 21.923 50.264 18.968 53.811 18.968 C 57.357 18.968 60.313 21.923 60.313 25.469 C 60.313 29.015 57.357 31.971 53.811 31.971 Z M 53.811 21.332 C 51.565 21.332 49.673 23.223 49.673 25.469 C 49.673 27.715 51.565 29.606 53.811 29.606 C 56.056 29.606 57.948 27.715 57.948 25.469 C 57.948 23.223 56.056 21.332 53.811 21.332 Z" style="fill: rgb(71, 71, 71);"/>
  <path d="M 64.568 22.159 L 63.386 22.159 L 63.386 15.657 C 63.386 15.421 63.267 15.185 63.031 15.185 C 62.795 15.185 62.559 15.066 62.44 15.185 L 59.485 17.312 L 58.776 16.367 L 61.731 14.239 C 62.322 13.884 63.031 13.766 63.622 14.12 C 64.213 14.475 64.568 15.066 64.568 15.657 L 64.568 22.159 Z" style="fill: rgb(71, 71, 71);"/>
</svg>