<?xml version="1.0" encoding="UTF-8"?>
<svg width="480px" height="160px" viewBox="0 0 480 160" version="1.1" xmlns="http://www.w3.org/2000/svg" xmlns:xlink="http://www.w3.org/1999/xlink">
    <!-- Generator: Sketch 51.3 (57544) - http://www.bohemiancoding.com/sketch -->
    <title>Sport</title>
    <desc>Created with Sketch.</desc>
    <defs></defs>
    <g id="icons" stroke="none" stroke-width="1" fill="none" fill-rule="evenodd">
        <g id="final" transform="translate(-1898.000000, -13.000000)" fill-rule="nonzero">
            <g id="Sport" transform="translate(1898.000000, 13.000000)">
                <g id="Group" transform="translate(78.000000, 87.000000)" fill="#666666">
                    <path d="M272,32.996 C272,38.836 273.6,44.276 276.32,48.996 C281.84,58.596 292.16,64.996 304,64.996 C315.84,64.996 326.16,58.596 331.68,48.996 C334.4,44.276 336,38.836 336,32.996 C336,27.156 334.4,21.716 331.68,16.996 C326.16,7.396 315.84,0.996 304,0.996 C286.32,0.996 272,15.316 272,32.996 Z" id="Shape"></path>
                    <path d="M0,32.996 C0,38.836 1.6,44.276 4.32,48.996 C9.84,58.596 20.16,64.996 32,64.996 C43.84,64.996 54.16,58.596 59.68,48.996 C62.4,44.276 64,38.836 64,32.996 C64,21.156 57.6,10.836 48,5.316 C43.28,2.596 37.84,0.996 32,0.996 C20.16,0.996 9.84,7.396 4.32,16.996 C1.6,21.716 0,27.156 0,32.996 Z" id="Shape"></path>
                </g>
                <path d="M462,87.996 C435.6,72.156 406.32,61.756 375.84,57.436 L310,47.996 L230,7.996 C212.32,7.996 194.8,9.676 177.6,13.116 C153.76,17.756 130.64,25.676 108.72,36.636 L86,47.996 L22,63.996 L22,119.996 L62,135.996 L82.32,135.996 C79.6,131.276 78,125.836 78,119.996 C78,114.156 79.6,108.716 82.32,103.996 C87.84,94.396 98.16,87.996 110,87.996 C115.84,87.996 121.28,89.596 126,92.316 C135.6,97.836 142,108.156 142,119.996 C142,125.836 140.4,131.276 137.68,135.996 L270,135.996 L310,135.996 L354.32,135.996 C351.6,131.276 350,125.836 350,119.996 C350,102.316 364.32,87.996 382,87.996 C393.84,87.996 404.16,94.396 409.68,103.996 C412.4,108.716 414,114.156 414,119.996 C414,125.836 412.4,131.276 409.68,135.996 L470,135.996 L464.64,103.996 L462,87.996 Z" id="Shape" fill="#F5BD3A"></path>
                <path d="M177.6,13.116 C153.76,17.756 130.64,25.676 108.72,36.636 L86,47.996 L166,47.996 L310,47.996 L230,7.996 C212.32,7.996 194.8,9.676 177.6,13.116 Z" id="Shape" fill="#CCCCCC"></path>
                <rect id="Rectangle-path" fill="#000000" x="374.08" y="111.996" width="16" height="16" rx="8"></rect>
                <rect id="Rectangle-path" fill="#000000" x="102.08" y="111.996" width="16" height="16" rx="8"></rect>
                <path d="M133.992,151.996 C137.016,149.732 139.76,147.092 142.064,144.028 L262.112,144.028 L278.112,144.028 L300.664,144.028 L316.88,144.028 L350.168,144.028 C352.472,147.092 355.224,149.732 358.24,151.996 C367.369859,157.086512 375.788259,159.631768 383.495202,159.631768 C391.202144,159.631768 398.693077,157.086512 405.968,151.996 C408.992,149.732 411.736,147.092 414.04,144.028 L479.56,144.028 L470.001026,86.7192834 C469.614264,84.4005325 468.238761,82.3643782 466.232,81.14 C438.744,64.644 408.752,54.012 377.088,49.524 L313.337751,40.3829617 C312.806711,40.3068168 312.291387,40.1457056 311.811543,39.9058077 L233.688712,0.848272169 C232.578164,0.293053176 231.353606,0.004 230.112,0.004 C216.424,0.004 202.832,0.996 189.528,2.964 L176.192,5.276 L171.592,6.196 C148.744,11.196 126.448,18.9 105.256,29.492 L82.392,40.924 L38.12,51.844 L38.12,41.108 L38.12,36.2209296 C38.12,33.8933149 36.5138517,31.8735671 34.2460308,31.3493739 L3.31654051,24.200208 C2.24034615,23.9514521 1.16626177,24.6222235 0.91750591,25.6984179 C0.849415853,25.9929964 0.84899951,26.2991789 0.91628819,26.5939415 L3.48754269,37.8574957 C3.88402467,39.5943119 5.17467477,40.9889816 6.87561594,41.5186299 L22.128,46.268 L22.128,55.804 L17.9290325,56.841145 C15.6965195,57.3925757 14.128,59.3956581 14.128,61.6952646 L14.128,122.058727 C14.128,124.103304 15.3728197,125.941885 17.2711844,126.701166 L59.6980195,143.670439 C60.2885815,143.906643 60.9187878,144.028 61.5548351,144.028 L78.192,144.028 C80.488,147.092 83.24,149.732 86.264,151.996 C93.9144568,157.086512 101.752293,159.631768 109.77751,159.631768 C117.802726,159.631768 125.874223,157.086512 133.992,151.996 Z M402.856,132.004 C398.608,139.396 390.656,143.996 382.112,143.996 C373.568,143.996 365.616,139.404 361.36,132.004 C359.2,128.26 358.112,124.22 358.112,119.996 C358.112,106.764 368.88,95.996 382.112,95.996 C390.648,95.996 398.608,100.588 402.864,107.988 C405.024,111.732 406.112,115.772 406.112,119.996 C406.112,124.22 405.016,128.26 402.856,132.004 Z M183.152,22.124 L183.824,20.1 C198.288,17.484 213.192,16.108 228.24,16.004 L276.224,39.996 L177.208,39.996 L183.152,22.124 Z M165.664,23.996 L164.704,26.884 L160.344,39.996 L120.328,39.996 C135.008,33.252 150.184,27.892 165.664,23.996 Z M110.112,143.996 C101.56,143.996 93.616,139.404 89.368,132.004 C87.208,128.26 86.112,124.22 86.112,119.996 C86.112,115.772 87.208,111.732 89.368,107.988 C90.288,106.396 91.44,104.996 92.672,103.684 C93.288,103.044 93.952,102.46 94.64,101.892 C95.208,101.404 95.8,100.964 96.408,100.54 C101.04,97.38 106.712,95.844 112.352,96.3 C112.968,96.356 113.576,96.436 114.176,96.54 C115.176,96.7 116.176,96.892 117.16,97.18 C118.856,97.708 120.528,98.34 122.128,99.26 C129.52,103.508 134.12,111.452 134.12,120.004 C134.112,124.22 133.016,128.26 130.856,132.004 C126.608,139.396 118.664,143.996 110.112,143.996 Z" id="Shape" fill="#000000"></path>
                <path d="M374.84,65.356 C403.176,69.372 430.064,78.66 454.84,92.988 L455.344,95.996 L440.112,95.996 C437.350576,95.996 435.112,98.2345763 435.112,100.996 L435.112,106.996 C435.112,109.757424 437.350576,111.996 440.112,111.996 L457.992,111.996 L460.656,127.996 L421.288,127.996 C421.352,127.7 421.328,127.388 421.384,127.092 C421.816,124.748 422.112,122.38 422.112,119.996 C422.112,113.036 420.248,106.124 416.728,100.004 C409.624,87.66 396.36,79.996 382.112,79.996 C360.056,79.996 342.112,97.94 342.112,119.996 C342.112,122.38 342.408,124.748 342.84,127.092 C342.896,127.388 342.872,127.692 342.936,127.996 L319.56,127.996 C324.87195,110.967891 327.14395,97.3358913 326.376,87.1 C325.60805,76.8641087 321.55205,66.717442 314.208,56.66 L374.84,65.356 Z" id="Path" fill="#FFFFFF"></path>
                <path d="M296.696,56.004 C304.269639,64.9249368 308.656305,75.8890518 309.856,88.8963449 C311.055695,101.903638 308.882361,114.936856 303.336,127.996 L278.112,127.996 L193.789849,127.996 C185.024237,115.484695 178.861795,103.486028 175.302524,92 C171.743252,80.513972 170.602411,68.5153054 171.88,56.004 L296.696,56.004 Z" id="Path" fill="#FFFFFF"></path>
                <path d="M83.16,90.5681591 C81.92,91.7040329 80.76,92.9198978 79.664,94.2077547 C79.408,94.5037218 79.144,94.7756916 78.896,95.0796578 C77.664,96.6314853 76.504,98.2553049 75.504,99.9991111 C71.984,106.118431 70.12,113.029663 70.12,119.98889 C70.12,122.380624 70.416,124.748361 70.848,127.0921 C70.904,127.388068 70.88,127.692034 70.936,127.988001 L63.656,127.988001 L30.12,114.573492 L30.12,95.9995556 L39.104,95.9995556 L45.6642911,95.9995556 C48.4257149,95.9995556 50.6642911,93.7609793 50.6642911,90.9995556 C50.6642911,90.622287 50.6215921,90.2462304 50.5370092,89.8785657 L49.1570923,83.8803435 C48.634812,81.6100959 46.6139236,80.0013333 44.2843742,80.0013333 L37.144,80.0013333 L30.112,80.0013333 L30.112,70.2504169 L87.096,56.004 L157.871422,56.004 C157.551331,73.2001753 158.557033,85.9347602 160.888528,94.2077547 C163.220022,102.480749 168.691354,113.740831 177.302524,127.988001 L149.278217,127.988001 C149.085084,127.94602 150.084661,108.361623 141.730137,95.9995556 C133.375614,83.6374884 117.170669,80.7196652 116.992,80.6892569 C115.656,80.4492836 114.312,80.2973004 112.952,80.193312 C112.4,80.1533164 111.848,80.0973227 111.296,80.0813244 C110.896,80.0653262 110.504,80.0013333 110.112,80.0013333 C100.248,80.0013333 90.92,83.7369182 83.72,90.0802133 C83.536,90.2481947 83.344,90.4001778 83.16,90.5681591 Z" id="Path" fill="#FFFFFF"></path>
            </g>
        </g>
    </g>
</svg>