<?xml version="1.0" encoding="UTF-8"?>
<svg width="465px" height="178px" viewBox="0 0 465 178" version="1.1" xmlns="http://www.w3.org/2000/svg" xmlns:xlink="http://www.w3.org/1999/xlink">
    <!-- Generator: Sketch 51.3 (57544) - http://www.bohemiancoding.com/sketch -->
    <title>Hatch</title>
    <desc>Created with Sketch.</desc>
    <defs></defs>
    <g id="icons" stroke="none" stroke-width="1" fill="none" fill-rule="evenodd">
        <g id="final" transform="translate(-24.000000, 0.000000)" fill-rule="nonzero">
            <g id="Hatch" transform="translate(24.000000, 0.000000)">
                <g id="Group" transform="translate(56.000000, 105.000000)" fill="#666666">
                    <path d="M280,32.004 C280,34.804 280.32,37.444 281.04,40.004 C284.56,53.844 297.12,64.004 312,64.004 C326.88,64.004 339.44,53.844 342.96,40.004 C343.68,37.444 344,34.804 344,32.004 C344,14.324 329.68,0.004 312,0.004 C294.32,0.004 280,14.324 280,32.004 Z" id="Shape"></path>
                    <path d="M0,32.004 C0,34.804 0.32,37.444 1.04,40.004 C4.56,53.844 17.12,64.004 32,64.004 C46.88,64.004 59.44,53.844 62.96,40.004 C63.68,37.444 64,34.804 64,32.004 C64,14.324 49.68,0.004 32,0.004 C14.32,0.004 0,14.324 0,32.004 Z" id="Shape"></path>
                </g>
                <path d="M40,145.004 L57.04,145.004 C56.32,142.444 56,139.804 56,137.004 C56,119.324 70.32,105.004 88,105.004 C105.68,105.004 120,119.324 120,137.004 C120,139.804 119.68,142.444 118.96,145.004 L184,145.004 L304,145.004 L337.04,145.004 C336.32,142.444 336,139.804 336,137.004 C336,119.324 350.32,105.004 368,105.004 C385.68,105.004 400,119.324 400,137.004 C400,139.804 399.68,142.444 398.96,145.004 L440,145.004 C448.8,145.004 456,137.804 456,129.004 C456,120.524 453.92,112.284 450.08,105.004 C449.52,103.964 448.88,102.844 448.24,101.804 C443.28,93.804 436.16,87.084 427.36,82.684 L404.64,71.324 C385.76,61.884 365.04,57.004 344,57.004 L304,33.004 L291.44,25.484 C273.52,14.684 252.96,9.004 232,9.004 L176,9.004 L120,9.004 L72,9.004 L36.56,44.444 L24,57.004 L24,81.004 L8,97.004 L8,113.004 C8,130.684 22.32,145.004 40,145.004 Z" id="Shape" fill="#FFFFFF"></path>
                <path d="M168.8,61.404 L191.44,63.084 L320,73.004 L344,57.004 L304,33.004 L291.44,25.484 C273.52,14.684 252.96,9.004 232,9.004 L176,9.004 L120,9.004 L92.3126581,36.6913419 C90.3600366,38.6439634 90.3600366,41.8097883 92.3126581,43.7624098 C92.54548,43.9952317 92.8007302,44.2044868 93.074691,44.3871273 L112,57.004 L168.8,61.404 Z" id="Shape" fill="#CCCCCC"></path>
                <polygon id="Shape" fill="#FEF7E7" points="24 65.004 24 89.004 48 89.004 64 73.004 36.56 52.444"></polygon>
                <rect id="Rectangle-path" fill="#000000" x="360.08" y="129.004" width="16" height="16"></rect>
                <rect id="Rectangle-path" fill="#000000" x="80.08" y="129.004" width="16" height="16"></rect>
                <path d="M111.968,169.004 C117.48,164.9 121.968,159.46 124.752,153.004 L177.432,153.004 L193.696,153.004 L292.296,153.004 L309.52,153.004 L331.48,153.004 C334.288,159.476 338.776,164.908 344.264,169.004 C352.76755,174.521848 360.965583,177.280773 368.858099,177.280773 C376.750615,177.280773 384.451249,174.521848 391.96,169.004 C397.472,164.9 401.96,159.46 404.744,153.004 L440.112,153.004 C453.344,153.004 464.112,142.236 464.112,129.004 C464.112,119.34 461.744,109.756 457.248,101.236 C456.624,100.06 455.896,98.78 455.152,97.588 C449.272,88.1 440.944,80.476 431.048,75.524 L408.328,64.164 C389.176,54.588 367.824,49.42 346.432,49.068 L295.68,18.628 C276.544,7.1 254.568,0.996 232.112,0.996 L182.152,0.996 L165.512,0.996 L139.424,0.996 L116.8,0.996 L68.8,0.996 L25.744,44.06 L16.12,53.684 L16.12,77.684 L0.12,93.684 L0.12,112.996 C0.112,135.06 18.056,153.004 40.112,153.004 L51.488,153.004 C54.296,159.476 58.784,164.908 64.272,169.004 C71.8226601,174.521848 79.5756115,177.280773 87.530854,177.280773 C95.4860966,177.280773 103.631812,174.521848 111.968,169.004 Z M391.384,142.74 C391.368,142.812 391.36,142.876 391.344,142.948 L391.288,143.14 C388.56,153.668 379.048,161.012 368.112,161.012 C357.144,161.012 347.6,153.62 344.856,142.844 C344.352,141.068 344.112,139.164 344.112,137.012 C344.112,123.78 354.88,113.012 368.112,113.012 C381.344,113.012 392.112,123.78 392.112,137.012 C392.112,139.116 391.864,140.988 391.384,142.74 Z M346.504,65.028 C365.4,65.388 384.256,70.02 401.176,78.484 L423.896,89.836 C427.648,91.716 431.08,94.148 434.136,97.004 L421.112,97.004 C418.350576,97.004 416.112,99.2425763 416.112,102.004 L416.112,108.004 C416.112,110.765424 418.350576,113.004 421.112,113.004 L445.04,113.004 C447.04,118.068 448.112,123.508 448.112,129.004 C448.112,133.412 444.528,137.004 440.112,137.004 L408.112,137.004 C408.112,114.948 390.168,97.004 368.112,97.004 C346.056,97.004 328.112,114.948 328.112,137.004 L315.928,137.004 C322.084583,126.331445 326.145916,116.176779 328.112,106.54 C330.078084,96.9032212 330.078084,87.1512212 328.112,77.284 L346.504,65.028 Z M232.112,16.996 C251.656,17.004 270.784,22.308 287.44,32.348 L329.16,57.356 L317.976,64.812 L197.72,55.532 L195.552,47.948 L186.72,16.996 L232.112,16.996 Z M312.112,80.412 C314.783284,84.5145294 314.783284,92.1998627 312.112,103.468 C309.440716,114.736137 304.968716,125.914804 298.696,137.004 L190.792,137.004 L182.216,89.876 L178.632,70.148 L312.112,80.412 Z M123.424,17.004 L170.072,17.004 L177.216,42.02 L180.712,54.252 L114.816,49.18 L106.760084,43.8154613 C104.001953,41.978786 103.254965,38.2539594 105.091641,35.4958282 C105.311413,35.1657964 105.563359,34.8583628 105.843784,34.5780366 L123.424,17.004 Z M32.112,60.316 L37.424,55.004 L51.928,65.868 L44.792,73.004 L32.112,73.004 L32.112,60.316 Z M48.112,137.004 L40.112,137.004 C26.88,137.004 16.112,126.236 16.112,113.004 L16.112,100.316 L27.424,89.004 L49.3529322,89.004 C50.6790146,89.004 51.9507842,88.4772158 52.8884661,87.5395339 L72.2095731,68.2184269 C74.1621945,66.2658055 74.1621945,63.0999806 72.2095731,61.1473591 C72.041725,60.979511 71.8621372,60.8238287 71.6721723,60.6814935 L53.4631258,47.0379806 C51.2532139,45.3821574 50.8040363,42.2483599 52.4598595,40.038448 C52.602044,39.8486841 52.7575476,39.6692751 52.9251929,39.5015794 L75.416,17.004 L100.792,17.004 L79.8636988,37.9323012 C77.9110773,39.8849227 77.9110773,43.0507476 79.8636988,45.003369 C80.096263,45.2359332 80.3512065,45.4449834 80.6248243,45.6274815 L109.4,64.82 L162.136,68.9 L163.312,75.364 L174.52,137.004 L128.112,137.004 C128.112,114.948 110.168,97.004 88.112,97.004 C66.056,97.004 48.112,114.948 48.112,137.004 Z M111.344,142.948 L111.288,143.14 C108.56,153.668 99.048,161.012 88.112,161.012 C77.144,161.012 67.6,153.62 64.856,142.844 C64.352,141.068 64.112,139.164 64.112,137.012 C64.112,123.78 74.88,113.012 88.112,113.012 C101.344,113.012 112.112,123.78 112.112,137.012 C112.112,139.116 111.864,140.988 111.384,142.74 C111.368,142.812 111.36,142.876 111.344,142.948 Z" id="Shape" fill="#000000"></path>
            </g>
        </g>
    </g>
</svg>