<?xml version="1.0" encoding="UTF-8"?>
<svg width="445px" height="191px" viewBox="0 0 445 191" version="1.1" xmlns="http://www.w3.org/2000/svg" xmlns:xlink="http://www.w3.org/1999/xlink">
    <!-- Generator: Sketch 51.3 (57544) - http://www.bohemiancoding.com/sketch -->
    <title>Van</title>
    <desc>Created with Sketch.</desc>
    <defs></defs>
    <g id="icons" stroke="none" stroke-width="1" fill="none" fill-rule="evenodd">
        <g id="final" transform="translate(-1956.000000, -1102.000000)" fill-rule="nonzero">
            <g id="Van" transform="translate(1956.000000, 1102.000000)">
                <g id="Group" transform="translate(60.000000, 119.000000)" fill="#666666">
                    <path d="M0,32.996 C0,38.836 1.6,44.276 4.32,48.996 C9.84,58.596 20.16,64.996 32,64.996 C43.84,64.996 54.16,58.596 59.68,48.996 C62.4,44.276 64,38.836 64,32.996 C64,30.356 63.68,27.876 63.04,25.476 C62.72,23.876 62.24,22.276 61.6,20.836 C61.04,19.556 60.48,18.356 59.84,17.156 C59.76,17.156 59.76,17.076 59.76,16.996 C59.04,15.876 58.32,14.756 57.52,13.716 C56.72,12.676 55.84,11.716 54.96,10.756 C53.12,8.836 51.04,7.156 48.8,5.796 C43.92,2.756 38.16,0.996 32,0.996 C20.16,0.996 9.84,7.396 4.32,16.996 C1.6,21.716 0,27.156 0,32.996 Z" id="Shape"></path>
                    <path d="M280,32.996 C280,38.756 281.52,44.196 284.32,48.916 L284.32,48.996 C289.84,58.596 300.16,64.996 312,64.996 C323.84,64.996 334.16,58.596 339.68,48.996 L339.68,48.916 C342.48,44.196 344,38.756 344,32.996 C344,27.156 342.4,21.716 339.68,16.996 C334.16,7.396 323.84,0.996 312,0.996 C300.16,0.996 289.84,7.396 284.32,16.996 C281.6,21.716 280,27.156 280,32.996 Z" id="Shape"></path>
                </g>
                <path d="M419.44,95.996 C419.12,95.436 418.72,94.956 418.32,94.476 C407.2,80.956 391.52,71.036 373.28,67.436 L356,63.996 L284,7.996 L276,7.996 L204,7.996 L124,7.996 L84,7.996 L52,7.996 L40,7.996 L12.8,56.796 L8,63.996 L8,135.996 L8,167.996 L64.32,167.996 C61.6,163.276 60,157.836 60,151.996 C60,146.156 61.6,140.716 64.32,135.996 C69.84,126.396 80.16,119.996 92,119.996 C98.16,119.996 103.92,121.756 108.8,124.796 C111.04,126.156 113.12,127.836 114.96,129.756 C115.84,130.636 116.72,131.676 117.52,132.716 C118.32,133.756 119.04,134.876 119.76,135.996 C120.48,137.356 121.12,138.556 121.6,139.836 C122.24,141.276 122.72,142.876 123.04,144.476 C123.68,146.876 124,149.436 124,151.996 C124,157.836 122.4,163.276 119.68,167.996 L204,167.996 L284.96,167.996 L344.32,167.996 C341.52,163.196 340,157.756 340,151.996 C340,146.156 341.6,140.716 344.32,135.996 C349.84,126.396 360.16,119.996 372,119.996 C383.84,119.996 394.16,126.396 399.68,135.996 C402.4,140.716 404,146.156 404,151.996 C404,157.756 402.48,163.196 399.68,167.916 L420,167.996 L436,159.996 L436,143.996 C436,141.276 435.84,138.636 435.52,135.996 C434.08,121.116 428.32,107.356 419.44,95.996 Z" id="Shape" fill="#FFFFFF"></path>
                <g id="Group" transform="translate(8.000000, 143.000000)" fill="#FFFFFF">
                    <path d="M280.96,0.996 L196,0.996 L111.76,0.996 C111.76,1.076 111.76,1.156 111.84,1.156 C112.48,2.356 113.12,3.556 113.6,4.836 C114.24,6.276 114.72,7.876 115.04,9.476 C115.68,11.876 116,14.436 116,16.996 C116,22.836 114.4,28.276 111.68,32.996 L196,32.996 L276.96,32.996 L336.32,32.996 C333.52,28.196 332,22.756 332,16.996 C332,11.156 333.6,5.716 336.32,0.996 L280.96,0.996 Z" id="Shape"></path>
                    <path d="M391.68,0.996 C394.4,5.716 396,11.156 396,16.996 C396,22.756 394.48,28.196 391.68,32.916 L391.68,32.996 L412,32.996 L428,24.996 L428,8.996 C428,6.276 427.84,3.636 427.52,0.996 L391.68,0.996 Z" id="Shape"></path>
                    <path d="M52,16.996 C52,11.156 53.6,5.716 56.32,0.996 L0,0.996 L0,32.996 L56.32,32.996 C53.6,28.276 52,22.836 52,16.996 Z" id="Shape"></path>
                </g>
                <g id="Group" transform="translate(36.000000, 7.000000)" fill="#CCCCCC">
                    <polygon id="Shape" points="240 0.996 168 0.996 88 0.996 48 0.996 32 56.996 88 56.996 168 56.996 248 56.996 320 56.996 248 0.996"></polygon>
                </g>
                <rect id="Rectangle-path" fill="#000000" x="364.08" y="143.996" width="16" height="16"></rect>
                <rect id="Rectangle-path" fill="#000000" x="84.08" y="143.996" width="16" height="16"></rect>
                <path d="M115.944,183.996 C118.976,181.732 121.736,179.084 124.048,176.004 L196.112,176.004 L212.112,176.004 L276.008,176.004 L284.112,176.004 L292.168,176.004 L340.176,175.996 C342.488,179.076 345.256,181.732 348.288,183.996 C355.781333,188.541209 363.727478,190.813813 372.126435,190.813813 C380.525391,190.813813 388.459247,188.541209 395.928,183.996 C398.968,181.732 401.736,179.076 404.048,175.996 L422,175.996 L444.112,164.94 L444.112,143.996 L443.6,135.228 C443.589333,135.137333 443.181333,132.729333 442.376,128.004 C439.92,114.796 434.504,102.252 426.136,91.436 C425.672,90.716 425.152,90.06 424.616,89.404 C411.944,74.004 394.304,63.412 374.96,59.596 L359.528,56.524 L289.861907,2.34181713 C287.913707,0.826622117 285.516056,0.004 283.048,0.004 L266.888,0.004 L212.112,0.004 L196.112,0.004 L132.112,0.004 L116.112,0.004 L94.72,0.004 L78.08,0.004 L62.72,0.004 L46.08,0.004 L38.3533314,0.004 C36.5399889,0.004 34.8687748,0.985781932 33.9859311,2.56970042 L6.08,52.636 L0.952893538,60.3197869 C0.404606054,61.1414832 0.112,62.1071768 0.112,63.0950046 L0.112,128.004 L0.112,144.004 L0.112,176.004 L60.176,176.004 C62.48,179.084 65.248,181.732 68.28,183.996 C75.6591711,188.541209 83.4026367,190.813813 91.5103968,190.813813 C99.6181569,190.813813 107.762691,188.541209 115.944,183.996 Z M392.912,163.828 L392.2,165.084 C387.824,171.844 380.232,175.996 372.112,175.996 C364.168,175.996 356.736,172.028 352.32,165.524 L351.312,163.828 C349.216,160.3 348.112,156.204 348.112,151.996 C348.112,147.772 349.208,143.732 351.368,139.988 C355.616,132.596 363.56,127.996 372.112,127.996 C374.248,127.996 376.344,128.284 378.36,128.828 C382.384,129.916 386.072,132.052 389.024,134.988 C390.496,136.46 391.792,138.132 392.856,139.98 L392.864,139.996 C395.024,143.74 396.112,147.772 396.112,151.996 C396.112,156.212 395.008,160.308 392.912,163.828 Z M428.112,155.052 L418.224,159.996 L411.296,159.996 C411.344,159.764 411.328,159.516 411.368,159.276 C411.816,156.884 412.104,154.46 412.104,151.996 C412.104,149.604 411.808,147.236 411.376,144.892 C411.32,144.596 411.344,144.292 411.288,143.996 L428.112,143.996 L428.112,155.052 Z M371.816,75.3 C382.016,77.316 391.616,81.676 400.032,88.012 L388.112,88.012 C383.693722,88.012 380.112,91.593722 380.112,96.012 L380.112,96.012 C380.112,100.430278 383.693722,104.012 388.112,104.012 L415.4,104.012 C420.528,111.34 424.256,119.444 426.24,128.012 L404.088,128.012 C404.032,127.932 403.976,127.868 403.92,127.804 C403.592,127.38 403.224,126.996 402.888,126.58 C402.168,125.708 401.448,124.852 400.664,124.052 C400.216,123.596 399.744,123.18 399.272,122.748 C398.528,122.06 397.776,121.38 396.984,120.748 C396.464,120.332 395.92,119.948 395.376,119.556 C394.576,118.98 393.768,118.436 392.928,117.924 C392.352,117.572 391.768,117.236 391.176,116.916 C390.312,116.444 389.432,116.012 388.536,115.612 C387.928,115.34 387.328,115.06 386.704,114.82 C385.76,114.452 384.8,114.132 383.824,113.836 C383.216,113.652 382.616,113.444 382,113.284 C380.92,113.004 379.816,112.804 378.712,112.62 C378.176,112.532 377.656,112.404 377.12,112.332 C375.464,112.124 373.792,111.996 372.104,111.996 C370.416,111.996 368.744,112.124 367.088,112.332 C366.552,112.404 366.024,112.524 365.496,112.62 C364.392,112.804 363.288,113.004 362.208,113.284 C361.592,113.444 360.992,113.644 360.384,113.836 C359.408,114.14 358.448,114.452 357.504,114.828 C356.888,115.076 356.28,115.34 355.672,115.62 C354.776,116.028 353.896,116.452 353.032,116.924 C352.44,117.252 351.856,117.588 351.28,117.932 C350.448,118.444 349.64,118.988 348.84,119.564 C348.296,119.956 347.752,120.34 347.232,120.756 C346.44,121.388 345.688,122.06 344.944,122.756 C344.48,123.188 344,123.604 343.552,124.06 C342.768,124.868 342.04,125.724 341.312,126.604 C340.976,127.012 340.608,127.388 340.288,127.812 C340.232,127.884 340.176,127.94 340.12,128.012 L298.128,128.012 C300.039035,121.286667 300.502272,113.286667 299.517712,104.012 C298.533151,94.7373333 296.53658,84.0706667 293.528,72.012 L354.803254,72.012 C355.130958,72.012 355.457868,72.0442167 355.779267,72.1081854 L371.816,75.3 Z M332.792,55.996 L291.048,55.996 L288.352,37.148 L285.824,19.468 L332.792,55.996 Z M212.112,15.996 L269.176,15.996 L272.032,35.996 L274.888,55.996 L212.112,55.996 L212.112,15.996 Z M277.176,71.996 C281.468268,88.7557194 283.834852,99.7689404 284.275752,105.035663 C284.716652,110.302386 283.966068,117.955831 282.024,127.996 L212.112,127.996 L212.112,71.996 L277.176,71.996 Z M278.128,159.996 L131.288,159.996 C131.352,159.7 131.328,159.396 131.376,159.1 C131.808,156.756 132.104,154.38 132.104,151.996 C132.104,150.46 132,148.956 131.832,147.508 C131.776,146.996 131.672,146.532 131.592,146.036 C131.48,145.348 131.4,144.62 131.256,143.988 L296.112,143.988 L296.112,143.996 L332.928,143.996 C332.864,144.292 332.888,144.596 332.84,144.892 C332.408,147.236 332.112,149.612 332.112,151.996 C332.112,154.46 332.408,156.884 332.848,159.276 C332.888,159.516 332.872,159.764 332.92,159.996 L278.128,159.996 Z M196.112,15.996 L196.112,55.996 L134.36,55.996 L132.112,55.996 L132.112,15.996 L196.112,15.996 Z M130.36,71.996 L132.112,71.996 L196.112,71.996 L196.112,127.996 L124.096,127.996 C124.056,127.94 124.016,127.884 123.968,127.828 C123.032,126.612 122.008,125.476 120.848,124.212 C119.936,123.26 118.976,122.364 117.984,121.508 L130.36,71.996 Z M90.152,15.996 L116.112,15.996 L116.112,55.996 L78.72,55.996 L90.152,15.996 Z M52.84,159.1 C52.896,159.396 52.872,159.7 52.928,159.996 L16.112,159.996 L16.112,143.996 L52.936,143.996 C52.872,144.292 52.896,144.596 52.848,144.892 C52.416,147.236 52.12,149.612 52.12,151.996 C52.112,154.388 52.408,156.756 52.84,159.1 Z M64.952,122.748 C64.488,123.18 64.008,123.596 63.56,124.052 C62.776,124.86 62.048,125.716 61.32,126.596 C60.984,127.004 60.616,127.38 60.296,127.804 C60.2586667,127.852 45.5306667,127.918667 16.112,128.004 L16.112,104.004 L35.112,104.004 C37.8734237,104.004 40.112,101.765424 40.112,99.004 L40.112,93.004 C40.112,90.2425763 37.8734237,88.004 35.112,88.004 L16.112,88.004 L16.112,66.9560758 C16.112,66.6116879 16.2135704,66.2749487 16.404,65.988 L16.404,65.988 C16.5774491,65.7266383 16.9014069,65.6094325 17.2019331,65.6993131 L29.268,69.308 C36.1263705,71.359183 43.3489906,67.4621876 45.4001737,60.6038171 C45.415414,60.5528593 45.4303405,60.5018082 45.4449524,60.4506666 L58.144,16.004 L73.504,16.004 L57.504,72.004 L113.864,72.004 L103.448,113.652 C102.04,113.252 100.776,113.028 99.52,112.788 C98.928,112.676 98.352,112.5 97.752,112.412 C95.888,112.148 94,112.004 92.104,112.004 C90.416,112.004 88.744,112.132 87.088,112.34 C86.552,112.412 86.024,112.532 85.496,112.628 C84.392,112.812 83.288,113.012 82.208,113.292 C81.592,113.452 80.992,113.652 80.384,113.844 C79.408,114.148 78.448,114.46 77.504,114.836 C76.888,115.084 76.28,115.348 75.672,115.628 C74.776,116.036 73.896,116.46 73.032,116.932 C72.44,117.26 71.856,117.596 71.28,117.94 C70.448,118.452 69.64,118.996 68.84,119.572 C68.296,119.964 67.752,120.348 67.232,120.764 C66.448,121.38 65.696,122.052 64.952,122.748 Z M114.952,158.972 C114.48,160.508 113.872,161.972 113.112,163.364 C113.008,163.588 112.968,163.804 112.856,164.004 C112.784,164.132 112.664,164.22 112.592,164.348 C110.592,167.66 107.84,170.428 104.536,172.436 C104.136,172.676 103.728,172.876 103.32,173.1 C102.024,173.788 100.664,174.356 99.24,174.796 C98.768,174.948 98.32,175.108 97.84,175.228 C96,175.684 94.096,175.988 92.112,175.988 C90.128,175.988 88.232,175.676 86.384,175.228 C85.904,175.108 85.456,174.94 84.984,174.796 C83.56,174.348 82.2,173.788 80.896,173.092 C80.488,172.876 80.08,172.676 79.68,172.436 C76.376,170.428 73.624,167.66 71.624,164.356 C71.544,164.228 71.432,164.132 71.352,164.004 C71.232,163.796 71.2,163.572 71.088,163.364 C70.336,161.98 69.728,160.532 69.264,158.996 C69.128,158.556 68.968,158.124 68.856,157.676 C68.408,155.844 68.104,153.956 68.104,151.988 C68.104,150.02 68.408,148.132 68.856,146.3 C68.968,145.86 69.128,145.428 69.264,144.988 C69.736,143.452 70.344,141.988 71.104,140.596 C71.216,140.396 71.248,140.172 71.368,139.972 C71.44,139.844 71.56,139.756 71.632,139.628 C73.632,136.316 76.384,133.556 79.688,131.54 C80.088,131.3 80.496,131.1 80.904,130.876 C82.2,130.188 83.56,129.62 84.984,129.172 C85.456,129.028 85.904,128.86 86.384,128.74 C88.224,128.284 90.128,127.98 92.112,127.98 C93.536,127.98 94.944,128.156 96.336,128.404 C96.776,128.484 97.208,128.58 97.64,128.684 C98.608,128.916 99.56,129.212 100.496,129.572 C100.912,129.724 101.336,129.844 101.736,130.02 C102.76,130.476 103.752,130.996 104.712,131.596 L104.784,131.636 C104.84,131.668 104.88,131.716 104.928,131.756 C106.608,132.82 108.136,134.076 109.496,135.516 C110.112,136.188 110.728,136.852 111.288,137.58 C111.432,137.772 111.568,137.988 111.712,138.196 C112.984,140.004 114.072,142.012 114.808,144.132 C115,144.716 115.176,145.452 115.368,146.308 C115.808,148.132 116.112,150.012 116.112,151.972 C116.112,153.94 115.808,155.828 115.36,157.66 C115.248,158.1 115.088,158.532 114.952,158.972 Z" id="Shape" fill="#000000"></path>
            </g>
        </g>
    </g>
</svg>