<?xml version="1.0" encoding="UTF-8"?>
<svg width="475px" height="256px" viewBox="0 0 475 256" version="1.1" xmlns="http://www.w3.org/2000/svg" xmlns:xlink="http://www.w3.org/1999/xlink">
    <!-- Generator: Sketch 51.3 (57544) - http://www.bohemiancoding.com/sketch -->
    <title>Other</title>
    <desc>Created with Sketch.</desc>
    <defs></defs>
    <g id="icons" stroke="none" stroke-width="1" fill="none" fill-rule="evenodd">
        <g id="final" transform="translate(-24.000000, -1038.000000)" fill-rule="nonzero">
            <g id="Other" transform="translate(24.000000, 1038.000000)">
                <path d="M200,216 C200,233.68 185.68,248 168,248 C150.32,248 136,233.68 136,216 C136,206.4 140.24,197.84 146.88,192 C152.56,187.04 159.92,184 168,184 C176.08,184 183.44,187.04 189.12,192 C195.76,197.84 200,206.4 200,216 Z" id="Shape" fill="#666666"></path>
                <path d="M360,8 L24,8 C15.2,8 8,15.2 8,24 L8,40 L8,192 L8,200 C8,208.8 15.2,216 24,216 L136,216 C136,206.4 140.24,197.84 146.88,192 C152.56,187.04 159.92,184 168,184 C176.08,184 183.44,187.04 189.12,192 C195.76,197.84 200,206.4 200,216 L376,216 L376,192 L400,192 L424,192 L448,192 L448,135 C448,132.238576 445.761424,130 443,130 L424,130 L375,130 L376,40 L376,24 C376,15.2 368.8,8 360,8 Z" id="Shape" fill="#FFFFFF"></path>
                <g id="Group" transform="translate(8.000000, 16.000000)" fill="#FFFFFF">
                    <polygon id="Shape" points="392 184 416 184 440 184 440 136 416 136 392 136 368 136 368 184"></polygon>
                    <path d="M240,184 L181.12,184 C187.76,189.84 192,198.4 192,208 L368,208 L368,184 L336,184 L240,184 Z" id="Shape"></path>
                    <path d="M16,208 L128,208 C128,198.4 132.24,189.84 138.88,184 L96,184 L96,112 L96,64 L64,64 L32,64 L32,184 L0,184 L0,192 C0,200.8 7.2,208 16,208 Z" id="Shape"></path>
                    <path d="M336,32 L368,32 L368,16 C368,7.2 360.8,0 352,0 L16,0 C7.2,0 0,7.2 0,16 L0,32 L96,32 L336,32 Z" id="Shape"></path>
                </g>
                <polygon id="Shape" fill="#CCCCCC" points="224 40 184 40 144 40 104 40 104 72 104 120 184 120 264 120 344 120 344 72 344 40 304 40 264 40"></polygon>
                <rect id="Rectangle-path" fill="#000000" x="160.08" y="208" width="16" height="16"></rect>
                <path d="M168,255.992 C173.784,256 179.112,254.696 184,252.56 C187.258667,251.136 189.885333,249.616 191.88,248 C199.632,242.224 205.296,233.808 207.304,224 L384.112,224 L384.112,200 L392.112,200 L408.112,200 L416.112,200 L432.112,200 L469.112,200 C471.873424,200 474.112,197.761424 474.112,195 L474.112,189 C474.112,186.238576 471.873424,184 469.112,184 L454.112,184 L454.112,126.261618 C454.112,120.186486 449.187132,115.261618 443.112,115.261618 L384.112,115.261618 L384.112,32 L384.112,24 C384.112,10.768 373.344,0 360.112,0 L24.112,0 C10.88,0 0.112,10.768 0.112,24 L0.112,32 L0.112,48 L0.112,184 L0.112,200 C0.112,213.232 10.88,224 24.112,224 L128.92,224 C130.92,233.808 136.592,242.224 144.344,248 C152.096,253.776 162.216,255.984 168,255.992 Z M368.112,208 L207.296,208 C207.288,207.952 207.256,207.904 207.248,207.856 C206.704,205.264 205.888,202.752 204.856,200.336 C204.808,200.232 204.8,200.112 204.752,200.008 L240.112,200.008 L352.112,200.008 L368.112,200.008 L368.112,208 Z M256.112,184 L256.112,168 L336.112,168 L336.112,184 L256.112,184 Z M384.112,184 L384.112,132 L428.112,132 C433.634847,132 438.112,136.477153 438.112,142 L438.112,184 L384.112,184 Z M16.112,24 C16.112,19.584 19.696,16 24.112,16 L360.112,16 C364.528,16 368.112,19.584 368.112,24 L368.112,32 L352.112,32 L336.112,32 L312.112,32 L296.112,32 L272.112,32 L256.112,32 L232.112,32 L216.112,32 L192.112,32 L176.112,32 L152.112,32 L136.112,32 L112.112,32 L96.112,32 L16.112,32 L16.112,24 Z M296.112,48 L336.112,48 L336.112,64 L296.112,64 L272.112,64 L272.112,48 L296.112,48 Z M296.112,80 L312.112,80 L336.112,80 L336.112,112 L272.112,112 L272.112,80 L296.112,80 Z M216.112,80 L232.112,80 L256.112,80 L256.112,112 L192.112,112 L192.112,80 L216.112,80 Z M192.112,64 L192.112,48 L256.112,48 L256.112,64 L192.112,64 Z M136.112,48 L176.112,48 L176.112,64 L136.112,64 L112.112,64 L112.112,48 L136.112,48 Z M136.112,80 L152.112,80 L176.112,80 L176.112,112 L112.112,112 L112.112,80 L136.112,80 Z M16.112,48 L96.112,48 L96.112,64 L80.112,64 L64.112,64 L32.112,64 L32.112,184 L16.112,184 L16.112,48 Z M96.112,80 L96.112,112 L96.112,128 L96.112,184 L80.112,184 L80.112,80 L96.112,80 Z M64.112,80 L64.112,184 L48.112,184 L48.112,80 L64.112,80 Z M131.368,200.32 C130.328,202.744 129.512,205.264 128.968,207.856 C128.96,207.904 128.928,207.952 128.92,208 L24.112,208 C19.696,208 16.112,204.416 16.112,200 L32.112,200 L48.112,200 L64.112,200 L80.112,200 L96.112,200 L112.112,200 L131.472,200 C131.424,200.104 131.416,200.216 131.368,200.32 Z M112.112,127.992 L176.112,127.992 L192.112,127.992 L256.112,127.992 L272.112,127.992 L352.112,127.992 L352.112,79.992 L352.112,63.992 L352.112,47.992 L368.112,47.992 L368.112,184 L352.112,184 L352.112,152 L240.112,152 L240.112,184 L192.048,184 C191.312,183.448 190.488,183.048 189.72,182.552 C189.12,182.176 188.536,181.776 187.92,181.432 C186.24,180.488 184.496,179.688 182.704,179.008 C182.424,178.904 182.168,178.768 181.888,178.672 C173.032,175.52 163.176,175.52 154.32,178.68 C154.064,178.768 153.824,178.888 153.576,178.984 C151.76,179.672 149.992,180.488 148.288,181.448 C147.688,181.784 147.128,182.168 146.544,182.528 C145.76,183.024 144.928,183.44 144.184,183.992 L112.112,183.992 L112.112,127.992 Z M144.112,216 C144.112,209.136 147.088,202.584 152.264,198.024 C161.152,190.264 175.072,190.264 183.96,198.024 C189.136,202.584 192.112,209.144 192.112,216 C192.112,229.232 181.344,240 168.112,240 C154.88,240 144.112,229.232 144.112,216 Z" id="Shape" fill="#000000"></path>
            </g>
        </g>
    </g>
</svg>