<?xml version="1.0" encoding="UTF-8"?>
<svg width="465px" height="177px" viewBox="0 0 465 177" version="1.1" xmlns="http://www.w3.org/2000/svg" xmlns:xlink="http://www.w3.org/1999/xlink">
    <!-- Generator: Sketch 51.3 (57544) - http://www.bohemiancoding.com/sketch -->
    <title>Sedan</title>
    <desc>Created with Sketch.</desc>
    <defs></defs>
    <g id="icons" stroke="none" stroke-width="1" fill="none" fill-rule="evenodd">
        <g id="final" transform="translate(-980.000000, 0.000000)" fill-rule="nonzero">
            <g id="Sedan" transform="translate(980.000000, 0.000000)">
                <g id="sedan-wheels" transform="translate(56.000000, 105.000000)" fill="#666666">
                    <path d="M280,32.004 C280,34.804 280.32,37.444 281.04,40.004 C284.56,53.844 297.12,64.004 312,64.004 C326.88,64.004 339.44,53.844 342.96,40.004 C343.68,37.444 344,34.804 344,32.004 C344,14.324 329.68,0.004 312,0.004 C294.32,0.004 280,14.324 280,32.004 Z" id="Shape"></path>
                    <path d="M0,32.004 C0,34.804 0.32,37.444 1.04,40.004 C4.56,53.844 17.12,64.004 32,64.004 C46.88,64.004 59.44,53.844 62.96,40.004 C63.68,37.444 64,34.804 64,32.004 C64,14.324 49.68,0.004 32,0.004 C14.32,0.004 0,14.324 0,32.004 Z" id="Shape"></path>
                </g>
                <path d="M40,145.004 L57.04,145.004 C56.32,142.444 56,139.804 56,137.004 C56,119.324 70.32,105.004 88,105.004 C105.68,105.004 120,119.324 120,137.004 C120,139.804 119.68,142.444 118.96,145.004 L192,145.004 L304,145.004 L337.04,145.004 C336.32,142.444 336,139.804 336,137.004 C336,119.324 350.32,105.004 368,105.004 C385.68,105.004 400,119.324 400,137.004 C400,139.804 399.68,142.444 398.96,145.004 L440,145.004 C448.8,145.004 456,137.804 456,129.004 C456,120.524 453.92,112.284 450.08,105.004 C449.52,103.964 448.88,102.844 448.24,101.804 C443.28,93.804 436.16,87.084 427.36,82.684 L404.64,71.324 C385.76,61.884 365.04,57.004 344,57.004 L304,33.004 L291.44,25.484 C273.52,14.684 252.96,9.004 232,9.004 L176,9.004 L159.52,9.004 C144,9.004 128.64,12.204 114.48,18.524 L84.96,31.484 C82.32,32.684 79.6,33.724 76.88,34.684 C65.04,38.924 52.64,41.004 40,41.004 C35.6,41.004 31.6,42.764 28.72,45.724 C25.76,48.604 24,52.604 24,57.004 L24,81.004 L8,97.004 L8,113.004 C8,130.684 22.32,145.004 40,145.004 Z" id="Shape" fill="#FFFFFF"></path>
                <path d="M192,63.084 L320,73.004 L344,57.004 L304,33.004 L291.44,25.484 C273.52,14.684 252.96,9.004 232,9.004 L176,9.004 L159.52,9.004 C144,9.004 128.64,12.204 114.48,18.524 L84.96,31.484 C82.32,32.684 79.6,33.724 76.88,34.684 L88,57.004 L192,63.084 Z" id="Shape" fill="#CCCCCC"></path>
                <rect id="Rectangle-path" fill="#000000" x="360.08" y="129.004" width="16" height="16"></rect>
                <rect id="Rectangle-path" fill="#000000" x="80.08" y="129.004" width="16" height="16"></rect>
                <path d="M111.968,169.004 C117.48,164.9 121.968,159.46 124.752,153.004 L184.112,153.004 L200.112,153.004 L292.296,153.004 L309.52,153.004 L331.48,153.004 C334.288,159.476 338.776,164.908 344.264,169.004 C353.064789,174.180434 361.344799,176.768651 369.10403,176.768651 C376.863261,176.768651 384.481918,174.180434 391.96,169.004 C397.472,164.9 401.96,159.46 404.744,153.004 L440.104,153.004 C453.336,153.004 464.104,142.236 464.104,129.004 C464.104,119.34 461.736,109.756 457.24,101.236 C456.616,100.06 455.888,98.78 455.144,97.588 C449.264,88.1 440.936,80.476 431.04,75.524 L408.32,64.164 C389.168,54.588 367.816,49.42 346.424,49.068 L295.672,18.628 C276.536,7.1 254.56,0.996 232.104,0.996 L182.08,0.996 L165.392,0.996 L159.624,0.996 C142.76,0.996 126.512,4.436 111.368,11.188 L81.752,24.188 C79.32,25.292 76.824,26.244 74.312,27.132 C63.424,31.028 51.92,32.996 40.096,32.996 C33.608,32.996 27.568,35.532 23.232,39.988 C18.632,44.476 16.096,50.508 16.096,56.996 L16.096,77.684 L1.56046609,92.2195339 C0.622784202,93.1572158 0.096,94.4289854 0.096,95.7550678 L0.096,112.996 C0.112,135.06 18.056,153.004 40.112,153.004 L51.488,153.004 C54.296,159.476 58.784,164.908 64.272,169.004 C70.9441865,174.180434 78.4017022,176.768651 86.6445471,176.768651 C94.887392,176.768651 103.328543,174.180434 111.968,169.004 Z M312.112,103.468 C309.43379,114.766946 304.96179,125.945613 298.696,137.004 L200.112,137.004 L200.112,71.724 L312.112,80.404 C314.79021,84.4810538 314.79021,92.1690538 312.112,103.468 Z M391.384,142.74 C391.368,142.812 391.36,142.876 391.344,142.948 L391.288,143.14 C388.56,153.668 379.048,161.012 368.112,161.012 C357.144,161.012 347.6,153.62 344.856,142.844 C344.352,141.068 344.112,139.164 344.112,137.012 C344.112,123.78 354.88,113.012 368.112,113.012 C381.344,113.012 392.112,123.78 392.112,137.012 C392.112,139.116 391.864,140.988 391.384,142.74 Z M346.504,65.028 C365.4,65.388 384.256,70.02 401.176,78.484 L423.896,89.836 C427.648,91.716 431.08,94.148 434.136,97.004 L421.112,97.004 C418.350576,97.004 416.112,99.2425763 416.112,102.004 L416.112,108.004 C416.112,110.765424 418.350576,113.004 421.112,113.004 L445.04,113.004 C447.04,118.068 448.112,123.508 448.112,129.004 C448.112,133.412 444.528,137.004 440.112,137.004 L408.112,137.004 C408.112,114.948 390.168,97.004 368.112,97.004 C346.056,97.004 328.112,114.948 328.112,137.004 L315.928,137.004 C322.084583,126.331445 326.145916,116.176779 328.112,106.54 C330.078084,96.9032212 330.078084,87.1512212 328.112,77.284 L338.984,70.036 L346.504,65.028 Z M287.44,32.348 L329.16,57.356 L326.368,59.22 L317.976,64.812 L200.12,55.676 L200.12,55.532 L198.2,55.42 L186.832,17.004 L232.112,17.004 C251.656,17.004 270.784,22.308 287.44,32.348 Z M184.112,70.628 L184.112,137.004 L128.112,137.004 C128.112,134.404 127.824,131.868 127.344,129.404 C127.184,128.596 126.912,127.836 126.704,127.036 C126.288,125.412 125.832,123.812 125.224,122.284 C124.872,121.404 124.44,120.572 124.024,119.724 C123.368,118.364 122.68,117.044 121.88,115.772 C121.352,114.94 120.792,114.156 120.208,113.364 C119.336,112.188 118.416,111.068 117.424,109.988 C116.76,109.268 116.096,108.572 115.384,107.9 C114.658667,107.222667 108.232,93.076 96.104,65.46 L115.248,66.58 L184.112,70.628 Z M88.288,38.812 L117.856,25.828 C130.976,19.972 145.032,17.004 159.632,17.004 L170.136,17.004 L181.208,54.428 L124.504,51.116 L93.208,49.284 L91.976,46.812 L88.04,38.916 C88.12,38.884 88.208,38.844 88.288,38.812 Z M58.8,110.004 C57.808,111.076 56.888,112.196 56.016,113.38 C55.432,114.164 54.872,114.956 54.344,115.788 C53.544,117.052 52.856,118.38 52.2,119.74 C51.784,120.588 51.352,121.42 51,122.3 C50.392,123.836 49.944,125.428 49.52,127.052 C49.312,127.844 49.032,128.604 48.88,129.42 C48.4,131.884 48.112,134.42 48.112,137.02 L40.112,137.02 C26.88,137.02 16.112,126.252 16.112,113.02 L16.112,102.801281 C16.112,101.209982 16.744141,99.683859 17.8693593,98.5586407 L27.424,89.004 L46.112,89.004 C48.8734237,89.004 51.112,86.7654237 51.112,84.004 L51.112,78.004 C51.112,75.2425763 48.8734237,73.004 46.112,73.004 L32.112,73.004 L32.112,57.004 C32.112,54.868 32.928,52.9 34.56,51.308 C36.008,49.82 37.976,49.004 40.112,49.004 C51.352,49.004 62.352,47.46 72.896,44.412 L96.3107513,99.0769715 C96.3067022,99.0769715 92.1733081,97.6925667 87.982032,97.4029568 C83.892333,97.1203658 79.7431168,97.9321963 79.672,97.948 C77.368,98.444 75.144,99.148 73.008,100.02 C72.248,100.332 71.552,100.748 70.816,101.108 C69.352,101.812 67.912,102.548 66.552,103.428 C65.76,103.94 65.032,104.516 64.28,105.084 C63.088,105.98 61.928,106.9 60.84,107.916 C60.128,108.58 59.464,109.284 58.8,110.004 Z M111.328,142.996 L111.304,143.084 C108.592,153.644 99.072,161.012 88.112,161.012 C77.136,161.012 67.6,153.62 64.856,142.844 C64.352,141.068 64.112,139.164 64.112,137.012 C64.112,123.772 74.88,113.004 88.112,113.004 C101.344,113.004 112.112,123.772 112.112,137.004 C112.112,139.1 111.864,140.956 111.392,142.692 C111.368,142.788 111.36,142.892 111.328,142.996 Z" id="Shape" fill="#0C0C0C"></path>
            </g>
        </g>
    </g>
</svg>
