<?xml version="1.0" encoding="UTF-8"?>
<svg width="465px" height="193px" viewBox="0 0 465 193" version="1.1" xmlns="http://www.w3.org/2000/svg" xmlns:xlink="http://www.w3.org/1999/xlink">
    <!-- Generator: Sketch 51.3 (57544) - http://www.bohemiancoding.com/sketch -->
    <title>SUV</title>
    <desc>Created with Sketch.</desc>
    <defs></defs>
    <g id="icons" stroke="none" stroke-width="1" fill="none" fill-rule="evenodd">
        <g id="final" transform="translate(-980.000000, -527.000000)" fill-rule="nonzero">
            <g id="SUV" transform="translate(980.000000, 527.000000)">
                <g id="Group" transform="translate(56.000000, 121.000000)" fill="#666666">
                    <path d="M280,32.004 C280,34.804 280.32,37.444 281.04,40.004 C284.56,53.844 297.12,64.004 312,64.004 C326.88,64.004 339.44,53.844 342.96,40.004 C343.68,37.444 344,34.884 344,32.164 C344,31.204 344,30.324 343.84,29.444 C343.84,28.484 343.68,27.524 343.52,26.644 C343.44,26.004 343.36,25.364 343.12,24.724 C343.12,24.644 343.12,24.564 343.04,24.484 C342.96,23.844 342.8,23.204 342.56,22.564 C342.56,22.484 342.56,22.324 342.48,22.244 C341.92,20.324 341.12,18.564 340.16,16.804 C339.68,15.924 339.2,15.044 338.56,14.164 C334.48,8.164 328.56,3.604 321.52,1.444 C320,0.964 318.4,0.564 316.88,0.404 C316.8,0.404 316.8,0.404 316.72,0.404 C316.08,0.244 315.36,0.164 314.72,0.164 C313.76,0.084 312.72,0.004 311.76,0.004 C310.72,0.004 309.76,0.084 308.72,0.164 C307.68,0.244 306.64,0.404 305.6,0.644 C304.56,0.884 303.52,1.124 302.48,1.444 C300.48,2.084 298.64,2.884 296.8,3.844 C295.68,4.484 294.56,5.124 293.52,5.924 C293.12,6.164 292.72,6.484 292.32,6.804 C291.28,7.524 290.32,8.404 289.36,9.364 C288.4,10.324 287.52,11.284 286.8,12.324 C286.48,12.724 286.16,13.124 285.92,13.524 C285.12,14.564 284.48,15.684 283.84,16.804 C282.88,18.644 282.08,20.484 281.44,22.484 C281.12,23.524 280.88,24.564 280.64,25.604 C280.4,26.644 280.24,27.684 280.16,28.724 C280.08,29.844 280,30.884 280,32.004 Z" id="Shape"></path>
                    <path d="M0,32.004 C0,34.804 0.32,37.444 1.04,40.004 C4.56,53.844 17.12,64.004 32,64.004 C46.88,64.004 59.44,53.844 62.96,40.004 C63.68,37.444 64,34.804 64,32.004 C64,17.124 53.84,4.564 40,1.044 C37.44,0.324 34.8,0.004 32,0.004 C14.32,0.004 0,14.324 0,32.004 Z" id="Shape"></path>
                </g>
                <path d="M440,97.004 C440,95.004 439.84,90.844 439.52,89.004 C436.88,74.924 425.04,63.884 410.24,62.844 L344,57.004 L304,33.004 L291.44,25.484 C273.52,14.684 252.96,9.004 232,9.004 L184,9.004 L112,9.004 L41.888,9.004 C35.824,9.004 30.288,12.428 27.576,17.852 L8,57.004 L8,65.004 L8,73.004 L8,129.004 C8,146.684 22.32,161.004 40,161.004 L57.04,161.004 C56.32,158.444 56,155.804 56,153.004 C56,135.324 70.32,121.004 88,121.004 C90.8,121.004 93.44,121.324 96,122.044 C109.84,125.564 120,138.124 120,153.004 C120,155.804 119.68,158.444 118.96,161.004 L192,161.004 L304,161.004 L337.04,161.004 C336.32,158.444 336,155.804 336,153.004 C336,151.884 336.08,150.844 336.16,149.724 C336.24,148.684 336.4,147.644 336.64,146.604 C336.88,145.564 337.12,144.524 337.44,143.484 C338.08,141.484 338.88,139.644 339.84,137.804 C340.48,136.684 341.12,135.564 341.92,134.524 C342.16,134.124 342.48,133.724 342.8,133.324 C343.52,132.284 344.4,131.324 345.36,130.364 C346.32,129.404 347.28,128.524 348.32,127.804 C348.72,127.484 349.12,127.164 349.52,126.924 C350.56,126.124 351.68,125.484 352.8,124.844 C354.64,123.884 356.48,123.084 358.48,122.444 C359.52,122.124 360.56,121.804 361.6,121.644 C362.64,121.404 363.68,121.244 364.72,121.164 C365.76,121.084 366.72,121.004 367.76,121.004 C368.72,121.004 369.76,121.084 370.72,121.164 C371.36,121.164 372.08,121.244 372.72,121.404 C374.4,121.564 376,121.964 377.52,122.444 C378.08,122.524 378.72,122.764 379.28,122.924 C385.76,125.164 391.04,129.564 394.56,135.164 C395.2,136.044 395.68,136.924 396.16,137.804 C397.12,139.564 397.92,141.324 398.48,143.244 C398.8,144.204 398.96,144.844 399.04,145.484 C399.36,146.364 399.44,147.004 399.52,147.644 C399.68,148.524 399.84,149.484 399.84,150.444 C400,151.324 400,152.204 400,153.164 C400,155.884 399.68,158.444 398.96,161.004 L440,161.004 C448.8,161.004 456,153.804 456,145.004 L456,113.004 C456,104.164 448.84,97.004 440,97.004 Z" id="Shape" fill="#FFFFFF"></path>
                <path d="M96,73.004 L192,73.004 L320,73.004 L344,57.004 L304,33.004 L291.44,25.484 C273.52,14.684 252.96,9.004 232,9.004 L184,9.004 L112,9.004 L71.888,9.004 C63.2194607,9.004 57.0784384,11.048935 53.4649331,15.1388051 L9,57.004 L9,65.004 L9,73.004 L47.52,73.004 L96,73.004 Z" id="Shape" fill="#CCCCCC"></path>
                <rect id="Rectangle-path" fill="#000000" x="360.08" y="145.004" width="16" height="16" rx="8"></rect>
                <rect id="Rectangle-path" fill="#000000" x="80.08" y="145.004" width="16" height="16" rx="8"></rect>
                <path d="M111.952,185.004 C117.464,180.9 121.96,175.46 124.752,168.996 L184.112,168.996 L200.112,168.996 L292.296,168.996 L309.528,168.996 L331.48,168.996 C334.288,175.476 338.784,180.908 344.28,185.004 C353.0091,189.745706 361.248041,192.116559 368.996823,192.116559 C376.745606,192.116559 384.394665,189.745706 391.944,185.004 C397.456,180.9 401.952,175.46 404.744,168.996 L440.104,168.996 C453.336,168.996 464.104,158.228 464.104,144.996 L464.104,112.996 C464.112,102.468 457.288,93.5 447.824,90.276 C447.736,89.268 447.632,88.308 447.488,87.532 C444.12,69.572 429.08,56.14 411.048,54.876 L346.64,49.196 L295.68,18.628 C276.544,7.1 254.56,0.996 232.112,0.996 L191.176,0.996 L175.048,0.996 L122.36,0.996 L105.864,0.996 L62,0.996 C55.904,0.996 48.7493333,5.41733333 40.536,14.26 L1.55806941,53.646763 C0.631648622,54.5829009 0.112,55.8467583 0.112,57.163804 L0.112,64.996 L0.112,80.996 L0.112,128.996 C0.112,151.052 18.056,168.996 40.112,168.996 L51.488,168.996 C54.296,175.476 58.792,180.908 64.288,185.004 C72.6671071,189.745706 80.749309,192.116559 88.5346058,192.116559 C96.3199025,192.116559 104.125701,189.745706 111.952,185.004 Z M312.112,119.468 C309.993373,130.838089 305.521373,142.016756 298.696,153.004 L200.112,153.004 L200.112,81.004 L201.176,81.004 L312.112,81.004 C314.230627,95.2765777 314.230627,108.097911 312.112,119.468 Z M391.384,158.7 C391.36,158.796 391.352,158.892 391.32,158.988 L391.296,159.076 C388.584,169.636 379.064,177.004 368.104,177.004 C357.128,177.004 347.592,169.612 344.848,158.836 C344.344,157.06 344.104,155.156 344.104,153.004 C344.104,152.188 344.16,151.428 344.24,150.324 C344.288,149.684 344.392,149.052 344.544,148.388 C344.736,147.54 344.928,146.692 345.16,145.924 C345.664,144.364 346.288,142.94 346.888,141.772 C347.352,140.964 347.784,140.148 348.816,138.756 L349.48,137.876 C349.936,137.22 350.512,136.628 351.12,136.02 C351.728,135.412 352.32,134.844 352.976,134.38 L354.488,133.268 C355.24,132.692 356.064,132.252 356.608,131.932 C358.032,131.188 359.456,130.564 360.944,130.092 C361.792,129.828 362.64,129.636 363.528,129.436 C364.16,129.284 364.792,129.188 365.56,129.132 C366.112,129.092 366.64,129.068 367.184,129.044 C368.032,129.02 369.016,129.044 370.88,129.164 L372.504,129.404 C373.4,129.532 374.336,129.796 375.288,130.092 C380.392,131.66 384.928,135.06 388.208,139.876 C388.632,140.46 388.928,141.044 389.256,141.644 C389.896,142.812 390.36,143.82 390.696,144.788 L391.176,146.372 L391.872,149.596 C391.92,149.876 391.968,150.164 391.968,150.452 L392.096,151.884 C392.16,152.3 392.128,152.716 392.128,153.172 C392.112,155.188 391.872,156.94 391.384,158.7 Z M409.864,71.604 C420.296,72.34 428.944,79.78 431.44,89.78 L412.260666,89.780001 C410.829116,89.780001 409.466228,90.3936072 408.517223,91.4653925 C406.636408,93.5895431 405.696,95.6137422 405.696,97.5379899 C405.696,99.4651438 406.63925,101.594279 408.525751,103.925394 L408.525752,103.925394 C409.475067,105.098447 410.903402,105.78 412.412459,105.78 L432.184,105.78 L440.184,105.78 C444.592,105.78 448.184,109.372 448.184,113.78 L448.184,121.756 L437.184,121.756 C434.422576,121.756 432.184,123.994576 432.184,126.756 L432.184,132.756 C432.184,135.517424 434.422576,137.756 437.184,137.756 L448.184,137.756 L448.184,145.756 C448.184,150.164 444.592,153.756 440.184,153.756 L408.184,153.756 C408.184,152.612 408.152,151.548 408.008,150.492 C407.96,149.292 407.792,148.148 407.648,147.428 C407.584,146.9 407.488,146.14 407.28,145.26 L406.704,142.308 L405.696,139.78 C405.096,138.14 404.344,136.5 403.376,134.74 C402.728,133.556 402.072,132.388 401.52,131.668 C401.264,131.276 401.128,131.148 401.024,131.004 C396.464,124.084 389.776,118.78 381.368,115.9 C380.808,115.724 380.232,115.564 379.68,115.444 C377.624,114.812 375.776,114.42 374.04,114.228 C373.048,114.036 372.104,113.932 371.592,113.956 C369.192,113.756 366.848,113.756 364.304,113.956 C362.864,114.068 361.416,114.284 360.576,114.508 C360.264,114.58 360.136,114.588 360.008,114.612 C358.776,114.9 357.544,115.188 356.24,115.596 C353.92,116.332 351.64,117.292 349.016,118.668 C347.688,119.428 346.368,120.204 345.128,121.124 C344.6,121.476 344.128,121.836 343.952,121.996 C342.528,122.98 341.2,124.164 339.888,125.476 C338.568,126.788 337.384,128.124 336.752,129.084 C336.32,129.62 335.896,130.18 335.536,130.724 C334.608,131.964 333.824,133.3 332.936,134.876 C331.712,137.212 330.76,139.484 329.984,141.9 C329.608,143.132 329.312,144.364 329.032,145.564 C328.696,147.012 328.48,148.452 328.344,150.268 C328.264,151.452 328.184,152.58 328.184,153.78 L316,153.78 C321.728701,148.348461 325.790035,138.193795 328.184,123.316 C330.577965,108.438205 330.577965,93.3528721 328.184,78.06 L346.288,65.996 L409.864,71.604 Z M232.112,17.004 C251.656,17.004 270.776,22.308 287.448,32.348 L329.16,57.356 L317.696,65.004 L200.112,65.004 L199.176,65.004 L193.176,17.004 L232.112,17.004 Z M118.36,17.004 L177.048,17.004 L183.048,65.004 L106.36,65.004 L118.36,17.004 Z M104.112,81.004 L184.112,81.004 L184.112,153.004 L128.112,153.004 C128.112,150.836 127.912,148.716 127.576,146.636 C127.464,145.94 127.264,145.276 127.112,144.588 C126.824,143.228 126.512,141.876 126.088,140.572 C125.824,139.772 125.496,139.012 125.184,138.228 C124.736,137.1 124.272,135.988 123.728,134.908 C123.312,134.092 122.864,133.316 122.392,132.532 C121.824,131.572 121.224,130.644 120.576,129.74 C120.016,128.948 119.432,128.188 118.816,127.444 C118.152,126.644 117.448,125.884 116.72,125.14 C116.008,124.412 115.304,123.684 114.536,123.012 C113.784,122.348 112.984,121.764 112.192,121.156 C111.352,120.524 110.536,119.876 109.648,119.308 C108.76,118.74 107.808,118.276 106.872,117.78 C105.992,117.316 105.152,116.796 104.232,116.396 C104.192,116.38 104.152,116.348 104.112,116.332 L104.112,81.004 Z M16.112,58.892 C36.2284255,39.2721208 47.8000009,27.9045035 50.8267263,24.7891482 C55.3668145,20.1161151 57.813679,17.004 64.2745013,17.004 L101.864,17.004 L89.864,65.004 L88.112,65.004 L16.112,65.004 L16.112,58.892 Z M48.112,153.004 L40.112,153.004 C26.88,153.004 16.112,142.236 16.112,129.004 L16.112,105.004 L30.112,105.004 C32.8734237,105.004 35.112,102.765424 35.112,100.004 L35.112,94.004 C35.112,91.2425763 32.8734237,89.004 30.112,89.004 L16.112,89.004 L16.112,81.004 L85.864,81.004 L88.112,81.004 L88.112,113.004 C66.056,113.004 48.112,130.948 48.112,153.004 Z M111.328,158.996 L111.304,159.084 C108.592,169.644 99.072,177.012 88.112,177.012 C77.136,177.012 67.6,169.62 64.856,158.844 C64.352,157.068 64.112,155.164 64.112,153.012 C64.112,139.78 74.88,129.012 88.112,129.012 C90.208,129.012 92.064,129.26 93.8,129.732 C93.904,129.756 94,129.764 94.104,129.796 L94.192,129.82 C104.752,132.532 112.12,142.052 112.12,153.012 C112.112,155.1 111.864,156.956 111.392,158.692 C111.368,158.788 111.36,158.892 111.328,158.996 Z" id="Shape" fill="#000000"></path>
            </g>
        </g>
    </g>
</svg>