<?xml version="1.0" encoding="UTF-8"?>
<svg width="458px" height="159px" viewBox="0 0 458 159" version="1.1" xmlns="http://www.w3.org/2000/svg" xmlns:xlink="http://www.w3.org/1999/xlink">
    <!-- Generator: Sketch 51.3 (57544) - http://www.bohemiancoding.com/sketch -->
    <title>Wagon</title>
    <desc>Created with Sketch.</desc>
    <defs></defs>
    <g id="icons" stroke="none" stroke-width="1" fill="none" fill-rule="evenodd">
        <g id="final" transform="translate(-1943.000000, -561.000000)" fill-rule="nonzero">
            <g id="Wagon" transform="translate(1943.000000, 561.000000)">
                <g id="Group" transform="translate(81.000000, 88.000000)" fill="#666666">
                    <path d="M0,32 C0,37.84 1.6,43.28 4.32,48 C9.84,57.6 20.16,64 32,64 C43.84,64 54.16,57.6 59.68,48 C62.4,43.28 64,37.84 64,32 C64,23.92 60.96,16.56 56,10.88 C50.16,4.24 41.6,0 32,0 C20.16,0 9.84,6.4 4.32,16 C1.6,20.72 0,26.16 0,32 Z" id="Shape"></path>
                    <circle id="Oval" cx="304" cy="32" r="32"></circle>
                </g>
                <path d="M257,8 L209,8 L153,8 L57,8 L17,48 L17,56 L17,104 L4,104 L4,136 L85.32,136 C82.6,131.28 81,125.84 81,120 C81,114.16 82.6,108.72 85.32,104 C90.84,94.4 101.16,88 113,88 C122.6,88 131.16,92.24 137,98.88 C141.96,104.56 145,111.92 145,120 C145,125.84 143.4,131.28 140.68,136 L225,136 L321,136 L357.32,136 C354.6,131.28 353,125.84 353,120 C353,102.32 367.32,88 385,88 C396.84,88 407.16,94.4 412.68,104 C415.4,108.72 417,114.16 417,120 C417,125.84 415.4,131.28 412.68,136 L433,136 L449,128 L449,112 L449,56 L329,56 L257,8 Z" id="Shape" fill="#FFFFFF"></path>
                <path d="M225,56 L329,56 L257,8 L209,8 L153,8 L57,8 L19.0502525,45.9497475 C17.7374979,47.2625021 17,49.0429795 17,50.8994949 L17,56 L137,56 L225,56 Z" id="Shape" fill="#CCCCCC"></path>
                <rect id="Rectangle-path" fill="#000000" x="377.08" y="112" width="16" height="16"></rect>
                <rect id="Rectangle-path" fill="#000000" x="105.08" y="112" width="16" height="16"></rect>
                <path d="M136.928,152 C139.968,149.736 142.736,147.08 145.04,144 L217.104,144 L233.104,144 L311.344,144 L327.664,144 L353.312,144 C355.616,147.04 358.376,149.712 361.424,152 C368.988114,156.587599 377.525995,158.881398 387.037642,158.881398 C396.549288,158.881398 403.800741,156.587599 408.792,152 C411.84,149.712 414.6,147.04 416.904,144 L433.81166,144 C434.587886,144 435.353451,143.819275 436.047728,143.472136 L454.340068,134.325966 C456.033988,133.479006 457.104,131.74769 457.104,129.85383 L457.104,53 C457.104,50.2385763 454.865424,48 452.104,48 L331.528,48 L260.795696,0.839890776 C259.974314,0.292241805 259.009194,2.37994694e-14 258.021982,2.39808173e-14 L214.88,0 L198.016,0 L164.928,0 L147.696,0 L55.8710678,7.10542736e-15 C54.5449854,7.34902475e-15 53.2732158,0.526784202 52.3355339,1.46446609 L10.8693593,42.9306407 C9.74414104,44.055859 9.112,45.5819824 9.112,47.1732814 L9.112,48 L9.112,64 L9.112,96 L5.112,96 C2.35057625,96 0.112,98.2385763 0.112,101 L0.112,139 C0.112,141.761424 2.35057625,144 5.112,144 L81.176,144 C83.488,147.08 86.256,149.736 89.296,152 C94.3016906,156.587599 102.206028,158.881398 113.009012,158.881398 C123.811996,158.881398 131.784992,156.587599 136.928,152 Z M408.36,125.672 C408.248,126.144 408.072,126.584 407.936,127.04 C407.48,128.496 406.896,129.92 406.152,131.304 C402.096,138.824 394.24,144 385.112,144 C375.984,144 368.128,138.824 364.072,131.304 C363.328,129.92 362.744,128.496 362.288,127.048 C362.144,126.592 361.976,126.144 361.864,125.68 C361.408,123.832 361.112,121.944 361.112,120.008 C361.112,106.776 371.88,96.008 385.112,96.008 C387.064,96.008 388.968,96.312 390.824,96.768 C391.32,96.888 391.792,97.064 392.272,97.216 C393.648,97.648 394.984,98.2 396.256,98.872 C396.696,99.112 397.152,99.328 397.576,99.592 C400.8,101.568 403.552,104.28 405.56,107.6 C405.776,107.952 405.96,108.328 406.16,108.696 C406.904,110.08 407.488,111.504 407.944,112.96 C408.088,113.416 408.256,113.856 408.368,114.328 C408.824,116.176 409.12,118.064 409.12,120 C409.12,121.936 408.824,123.824 408.36,125.672 Z M330.88,63.992 L355.544,63.992 L441.112,63.992 L441.112,72 L430.112,72 C427.350576,72 425.112,74.2385763 425.112,77 L425.112,83 C425.112,85.7614237 427.350576,88 430.112,88 L441.112,88 L441.112,123.056 L431.224,128 L424.304,128 C424.832,125.416 425.112,122.744 425.112,120 C425.112,117.648 424.824,115.312 424.4,113 C424.28,112.328 424.152,111.672 424,111.008 C423.504,108.872 422.888,106.76 422.048,104.728 C421.864,104.288 421.616,103.888 421.416,103.448 C420.888,102.288 420.368,101.12 419.728,100.016 C419.44,99.52 419.088,99.08 418.784,98.6 C418.416,98.024 418.048,97.464 417.656,96.904 C416.384,95.104 415.016,93.392 413.48,91.84 C411.76,90.104 409.992,88.704 408.152,87.408 C407.64,87.04 407.112,86.704 406.584,86.36 C404.896,85.28 403.152,84.32 401.328,83.504 C401.04,83.376 400.784,83.216 400.496,83.088 C398.424,82.224 396.264,81.592 394.064,81.088 C393.448,80.944 392.832,80.824 392.2,80.712 C389.88,80.288 387.52,79.992 385.12,79.992 C363.064,79.992 345.12,97.936 345.12,119.992 C345.12,122.736 345.4,125.408 345.928,127.992 L330.88,127.992 C335.146667,117.325333 337.28,106.658667 337.28,95.992 C337.28,85.3253333 335.146667,74.6586667 330.88,63.992 Z M320.952,96 C320.952,106.666667 318.818667,117.333333 314.552,128 L233.112,128 L233.112,88 L233.112,72 L233.112,64 L236.208,64 L314.552,64 C318.818667,74.6666667 320.952,85.3333333 320.952,96 Z M254.688,16 L302.688,48 L233.112,48 L230.88,48 L225.544,32 L220.208,16 L254.688,16 Z M158.528,16 L203.344,16 L208.68,32 L214.016,48 L145.728,48 L158.528,16 Z M217.104,64 L217.104,72 L217.112,88 L217.112,128 L152.288,128 C152.352,127.704 152.328,127.4 152.376,127.104 C152.808,124.76 153.104,122.384 153.104,120 C153.104,117.704 152.872,115.44 152.48,113.2 C152.352,112.472 152.12,111.776 151.952,111.056 C151.6,109.56 151.232,108.072 150.712,106.624 C150.424,105.808 150.04,105.04 149.696,104.24 C149.136,102.936 148.544,101.656 147.848,100.416 C147.4,99.616 146.888,98.864 146.384,98.088 C145.944,97.416 145.584,96.696 145.104,96.048 L145.104,64 L217.104,64 Z M60.424,16 L141.296,16 L129.112,46.464 L129.112,48 L28.424,48 L60.424,16 Z M78.496,100.008 C74.976,106.128 73.112,113.04 73.112,120 C73.112,122.392 73.408,124.76 73.84,127.104 C73.896,127.4 73.872,127.704 73.928,128 L22.112,128 C19.3505763,128 17.112,125.761424 17.112,123 L17.112,117 C17.112,114.238576 19.3505763,112 22.112,112 L39.112,112 C41.8734237,112 44.112,109.761424 44.112,107 L44.112,101 C44.112,98.2385763 41.8734237,96 39.112,96 L25.112,96 L25.112,88 L39.112,88 C41.8734237,88 44.112,85.7614237 44.112,83 L44.112,77 C44.112,74.2385763 41.8734237,72 39.112,72 L25.112,72 L25.112,67 C25.112,65.3431458 26.4551458,64 28.112,64 L129.112,64 L129.112,83.352 C129,83.304 128.88,83.288 128.768,83.24 C126.4,82.224 123.944,81.416 121.408,80.88 C118.496,80.296 115.824,80 113.112,80 C98.856,80 85.592,87.664 78.496,100.008 Z M113.112,144 C104.56,144 96.616,139.408 92.368,132.008 C90.208,128.264 89.112,124.224 89.112,120 C89.112,115.776 90.208,111.736 92.368,107.992 C96.616,100.6 104.56,96 113.112,96 C114.832,96 116.528,96.184 118.184,96.544 C123.136,97.624 127.68,100.272 131.104,104.152 C134.976,108.6 137.12,114.224 137.12,119.992 C137.112,124.224 136.016,128.264 133.856,132.008 C129.608,139.4 121.664,144 113.112,144 Z" id="Shape" fill="#000000"></path>
            </g>
        </g>
    </g>
</svg>